<svg width="51" height="51" viewBox="0 0 51 51" fill="none" xmlns="http://www.w3.org/2000/svg">
<g opacity="0.9">
<path d="M30.6172 0.927246C30.7352 0.939892 30.849 0.95254 30.9671 0.969401C30.8532 0.95254 30.7352 0.939892 30.6172 0.927246Z" fill="#262626"/>
<path d="M37.9061 3.27959L37.2696 2.93816C37.2527 2.92973 37.2317 2.91708 37.2148 2.90865C37.1474 2.87493 37.0799 2.8412 37.0125 2.80748C37.0546 2.82855 37.101 2.84964 37.1474 2.87072C37.0462 2.81592 36.945 2.76533 36.8439 2.71054L36.397 2.5082C36.435 2.52506 36.4771 2.54614 36.5151 2.563C35.9671 2.31009 35.4107 2.08247 34.8374 1.88014C32.3884 1.30266 29.8635 1.06238 25.5176 0.990723C33.5729 1.38695 36.338 2.53771 37.2654 2.93394C37.4804 3.04354 37.6953 3.15735 37.9061 3.27959Z" fill="#262626"/>
<path d="M31.4948 0.733615C31.1786 0.657741 30.8625 0.581867 30.5927 0.522854L30.4241 0.489126C29.4967 0.341593 27.6547 0.632452 25.5176 0.999176C25.703 0.973884 25.8843 0.952807 26.0698 0.931731C29.6063 0.52707 30.6306 0.594517 31.4948 0.737835V0.733615Z" fill="#262626"/>
<path d="M28.8855 0.227695C28.6073 0.189758 28.2617 0.151821 27.9919 0.122314C27.9919 0.122314 27.9835 0.122314 27.9793 0.122314C27.9287 0.13496 27.9202 0.139178 25.5176 0.994867C28.308 0.252989 28.582 0.24877 28.9572 0.24034C28.9361 0.24034 28.9108 0.236129 28.8855 0.231914V0.227695Z" fill="#262626"/>
<path d="M16.9745 48.9343C17.0335 48.9554 17.0967 48.9765 17.1599 49.0018C17.6067 49.1535 18.1631 49.3263 18.5889 49.457C19.0315 49.5835 19.6258 49.7226 20.0726 49.828C14.2599 48.4074 9.29855 45.225 5.33203 40.3606L6.44906 41.739C6.58816 41.8949 6.71041 42.034 6.82843 42.1605C7.24152 42.5904 7.73049 43.0878 8.22788 43.5684C8.53559 43.8508 8.91918 44.188 9.45029 44.6601C9.72428 44.8793 10.0446 45.1238 10.3734 45.3683C13.1934 47.4464 15.1198 48.2135 16.9787 48.9385L16.9745 48.9343Z" fill="#262626"/>
<path d="M26.7818 0.0674321C26.7439 0.0547865 26.6975 0.0379359 26.6596 0.0252903C26.6596 0.0252903 26.6554 0.0252903 26.6512 0.0252903C26.3898 0.0126446 26.2296 0.0084258 26.2128 0.0084258C26.0652 0.0084258 25.8798 0 25.7238 0C26.0189 0.0126456 26.0273 0.0210725 26.1622 0.193896C26.106 0.396226 25.8924 0.663187 25.5215 0.994784C26.706 0.337211 26.7439 0.210749 26.786 0.0674321H26.7818Z" fill="#262626"/>
<path d="M2.01302 34.4341C6.63289 45.3431 18.2037 49.5204 22.2924 50.2075C22.3135 50.2075 22.3303 50.2117 22.3514 50.2159C22.5664 50.2412 22.8362 50.2707 23.0469 50.2918L23.4769 50.3297C23.4769 50.3297 23.4937 50.3297 23.498 50.3297C21.0869 50.1063 4.50421 45.2124 0.769531 30.1599C0.811683 30.3833 0.84962 30.6025 0.891773 30.8048C1.16998 31.8544 1.59571 33.2286 1.95401 34.274C1.97508 34.3288 1.99616 34.3793 2.01302 34.4341Z" fill="#262626"/>
<path d="M24.8131 0.193752C25.3864 0.408728 25.4159 0.535182 25.5171 0.99464C25.9344 0.0546478 25.0661 0.0377921 24.2989 0.0251465C24.0291 0.0377921 23.6708 0.0630767 23.4053 0.0841528L23.1523 0.105237C23.5444 0.0799453 24.3621 0.0251439 24.8131 0.193752Z" fill="#262626"/>
<path d="M24.9484 50.4057C25.0453 50.4057 25.138 50.4099 25.235 50.4099H25.2771C25.2771 50.4099 25.3109 50.4099 25.3235 50.4099C25.4331 50.4099 25.5385 50.4099 25.6481 50.4099C25.7408 50.4099 25.8335 50.4099 25.9136 50.4099C25.9179 50.4099 25.9221 50.4099 25.9263 50.4099C24.0126 50.3762 -3.36945 39.9983 1.05652 18.9138C1.05652 18.9138 1.05652 18.9138 1.05652 18.918C0.904773 19.5124 0.757241 20.3133 0.630785 20.9118C0.508543 21.679 0.407378 22.7117 0.323074 23.4831C-0.127954 42.3968 22.4445 50.1654 24.9484 50.4057Z" fill="#262626"/>
<path d="M20.822 0.438447C20.7714 0.446877 20.7166 0.459526 20.666 0.467957C23.7473 -0.0589451 25.033 0.699793 25.5219 0.994858C24.6494 0.0337896 23.1319 0.0506473 20.8262 0.438447H20.822Z" fill="#262626"/>
<path d="M3.51979 12.8185C-7.60416 34.2655 23.5547 49.4065 27.2809 50.3465C27.3062 50.3465 27.3315 50.3465 27.3568 50.3423L27.5212 50.3297C27.5465 50.3297 27.5718 50.3255 27.6013 50.3212C27.791 50.3044 28.0186 50.2791 28.2125 50.2622C28.2378 50.2622 28.2631 50.258 28.2842 50.2538C23.8708 46.8985 18.5007 45.0691 14.2475 41.4609C12.1652 39.6947 7.28819 35.5596 4.43871 30.0292C-1.26448 18.9643 3.81064 11.908 6.30183 8.87305C6.21331 8.97421 6.12901 9.07537 6.0447 9.17232L5.62318 9.67393C4.96561 10.5802 4.13521 11.8237 3.54087 12.7805C3.53244 12.7932 3.52822 12.8058 3.51979 12.8185Z" fill="#262626"/>
<path d="M19.683 0.67849C19.683 0.67849 19.7125 0.67006 19.7294 0.665845C19.6914 0.674276 19.645 0.682705 19.6113 0.691135C19.3331 0.754364 18.9706 0.851312 18.6966 0.927186C18.1318 1.08315 17.3857 1.31499 16.8377 1.52153C16.5005 1.64799 16.0537 1.8166 15.7249 1.9557C15.3287 2.12431 14.8102 2.36879 14.4182 2.55005C14.0177 2.73552 13.4993 3.0095 13.1199 3.23291C12.6731 3.49425 12.1209 3.83568 11.6319 4.15182C6.59475 7.61673 2.6198 13.1766 3.16778 19.4446C4.46606 34.2316 21.2131 44.3734 27.5149 48.1924C28.9705 49.0748 29.7405 49.6874 29.8248 50.0302C29.8248 50.0302 29.8543 50.026 29.8669 50.0218C30.2126 49.9586 30.6468 49.8658 30.9924 49.7942C31.005 49.7942 31.0177 49.7899 31.0303 49.7857C31.1526 49.7436 31.2411 49.5665 31.3254 49.4654C31.0388 48.9132 30.4781 48.5169 27.4474 46.5316C19.6493 41.4227 11.8005 35.5467 7.2186 27.2217C-3.12132 8.42605 16.9305 -1.29845 25.5211 0.990412C23.856 0.345484 21.8285 0.273826 19.6872 0.674271L19.683 0.67849Z" fill="#262626"/>
<path d="M28.4008 44.4325C33.1472 47.7878 34.2768 48.5845 32.7762 49.3264C32.7931 49.3222 32.81 49.318 32.8226 49.3137C33.0544 49.2421 33.3158 49.1536 33.5729 49.0693C33.75 49.0102 33.9228 48.947 34.0956 48.8838C36.2201 47.8974 34.3696 46.5317 29.9436 43.2733C25.0497 39.6693 18.9546 35.1843 13.7867 28.6255C-1.47237 9.26078 14.8152 -0.324616 25.5134 0.994746C13.3567 -1.63976 -12.8029 15.3223 28.3966 44.4325H28.4008Z" fill="#262626"/>
<path d="M31.192 40.664C36.7266 44.9087 38.8004 46.4978 36.0521 48.0828C36.0732 48.0743 36.0943 48.0617 36.1154 48.0533C36.5748 47.8341 37.1481 47.5306 37.5907 47.3072C39.732 46.0552 38.8763 44.601 37.6328 43.2184C32.427 37.4309 25.5141 33.5951 20.1818 27.9509C3.02171 9.78333 14.5335 0.745915 25.5183 0.998827C14.3227 -0.0212543 -5.66584 12.4052 31.192 40.6682V40.664Z" fill="#262626"/>
<path d="M35.4694 37.1529C40.7426 41.3765 42.6226 43.6485 39.8068 45.9332C40.2874 45.5959 40.8986 45.1154 41.3791 44.7487C41.6194 44.5506 41.8723 44.3356 42.1126 44.1206C44.3003 42.1184 43.0736 41.0351 28.3541 28.0691C7.01669 9.27766 16.6316 2.64291 23.5867 1.2561C17.2807 2.43215 -0.305133 8.48941 35.4694 37.1529Z" fill="#262626"/>
<path d="M25.2344 1.01587C24.7159 1.06224 24.1595 1.14233 23.582 1.25614C24.3239 1.11704 24.9056 1.04538 25.2344 1.01587Z" fill="#262626"/>
<path d="M25.5168 0.994873C25.5168 0.994873 25.3988 1.0033 25.2344 1.01594C25.3271 1.00751 25.4241 0.999088 25.5168 0.994873Z" fill="#262626"/>
<path d="M34.4864 28.8827C43.233 35.9221 46.5166 39.1425 43.6714 42.6411C43.6925 42.62 43.7093 42.6032 43.7262 42.5821C44.173 42.1016 44.7125 41.4651 45.1341 40.9803C45.1425 40.9677 45.1509 40.9592 45.1593 40.9466C47.6505 37.684 45.2689 34.2486 35.0007 26.2692C8.20879 5.4545 22.4014 1.56808 25.5207 0.999023C23.2487 1.28566 4.20012 4.51029 34.4906 28.8827H34.4864Z" fill="#262626"/>
<path d="M36.2963 23.2511C46.1936 30.6446 48.9167 34.4256 47.0662 38.2066C47.142 38.0802 47.2137 37.958 47.2854 37.8357L47.3528 37.7177C47.4034 37.6292 47.4498 37.5491 47.4961 37.469L48.061 36.3815C48.1284 36.2424 48.1959 36.1033 48.2633 35.9684C50.4721 30.9017 42.1007 24.8065 36.545 20.7641C18.4407 7.59155 20.5567 2.74827 25.518 1.00317C21.2817 2.10756 13.8461 6.49139 36.2963 23.2595V23.2511Z" fill="#262626"/>
<path d="M36.7765 17.5101C45.4177 23.5968 50.594 27.6687 49.5191 32.7481C49.5697 32.5752 49.6245 32.4024 49.6708 32.2338C49.8437 31.6015 50.0165 30.8892 50.1556 30.3201C50.8975 25.2576 45.6706 21.3965 37.0842 15.5247C31.4105 11.6425 20.8514 4.41763 25.5177 0.994873C18.2 4.42184 32.1819 14.2728 36.7765 17.5101Z" fill="#262626"/>
<path d="M37.4135 13.0335C47.1506 19.3521 50.4596 22.2184 50.6366 26.5685C50.6408 26.4842 50.6493 26.3957 50.6535 26.3114L50.683 25.2491L50.6577 24.2206C50.6535 24.1026 50.6493 23.9888 50.6408 23.8708C50.2657 19.3057 44.1831 15.5415 36.4904 10.7867C31.078 7.44408 24.9449 3.65039 25.5224 0.999023C22.989 3.6799 31.6724 9.31142 37.4177 13.0377L37.4135 13.0335Z" fill="#262626"/>
<path d="M36.7806 8.99949C45.7506 14.0915 49.127 16.5658 50.2019 20.2963C50.067 19.6513 49.8478 18.8336 49.6665 18.1423C49.6244 17.999 49.5822 17.8599 49.5401 17.7166C48.0816 13.9229 43.1962 11.1998 34.711 6.74014C28.7127 3.58295 26.7358 2.34789 25.5176 0.999023C26.2173 3.00547 30.6475 5.52194 36.7806 9.00371V8.99949Z" fill="#262626"/>
<path d="M48.2583 14.4246C48.2204 14.3487 48.1867 14.2728 48.1488 14.1969L47.6387 13.1895L47.2973 12.5867C47.2341 12.4771 47.1708 12.3675 47.1034 12.2579C45.9484 10.4622 43.8577 9.12602 40.8649 7.55796C35.9204 4.96982 30.6177 3.22894 25.5215 0.994873C27.1106 2.00652 30.0318 3.34697 33.7285 5.0457C43.5373 9.55176 46.5596 11.4992 48.2626 14.4246H48.2583Z" fill="#262626"/>
<path d="M45.1984 9.52225C45.152 9.46324 45.1099 9.41266 45.0593 9.34943C45.0298 9.31149 45.0003 9.27777 44.9666 9.23983C44.9286 9.19346 44.8907 9.1471 44.8528 9.10073C44.4818 8.67078 44.0645 8.20288 43.7315 7.82773C41.5396 5.58102 35.4107 3.28373 25.5176 0.994873C40.5237 5.49251 43.428 7.60012 45.1984 9.52225Z" fill="#262626"/>
<path d="M41.0844 5.42927C40.7176 5.14685 40.3172 4.85179 39.9715 4.59888C39.8999 4.54829 39.8282 4.50194 39.7566 4.45135C37.375 2.95074 32.5907 1.78733 25.5176 0.994873C29.9183 1.64823 37.7881 3.12355 41.3963 5.68219C41.2909 5.59367 41.1855 5.50936 41.0844 5.42927Z" fill="#262626"/>
<path d="M31.0985 0.990646C31.6844 1.07074 32.2661 1.17612 32.831 1.30679C33.8384 1.4754 33.9649 1.51334 34.732 1.76204C34.711 1.75361 34.6857 1.74096 34.6646 1.73675C34.281 1.585 33.7583 1.40795 33.3663 1.26885H33.3579C32.4347 0.969572 31.3514 0.931642 30.0953 0.881059C30.1543 0.885275 30.2091 0.893696 30.2681 0.897911C29.6274 0.838898 28.9741 0.805176 28.3123 0.805176C27.2964 0.855758 27.1615 0.864198 25.5176 0.999085C28.131 0.889489 29.3113 0.910561 31.0985 0.994866V0.990646ZM30.6138 0.93164C30.7318 0.944286 30.8456 0.956934 30.9636 0.973795C30.8498 0.956934 30.7318 0.944286 30.6138 0.93164Z" fill="#262626"/>
</g>
</svg>
