<svg width="183" height="40" viewBox="0 0 183 40" fill="none" xmlns="http://www.w3.org/2000/svg">
<path d="M11.6654 19.9999L19.9987 11.6666L28.332 19.9999L19.9987 28.3333L11.6654 19.9999Z" fill="#1A1A1A"/>
<path d="M36.6654 9.99992V19.9999L19.9987 3.33325H29.9987L36.6654 9.99992Z" fill="#1A1A1A"/>
<path d="M36.6654 29.9999V19.9999L19.9987 36.6666H29.9987L36.6654 29.9999Z" fill="#1A1A1A"/>
<path d="M3.33203 29.9999V19.9999L19.9987 36.6666H9.9987L3.33203 29.9999Z" fill="#1A1A1A"/>
<path d="M3.33203 9.99992V19.9999L19.9987 3.33325H9.9987L3.33203 9.99992Z" fill="#1A1A1A"/>
<path d="M46.6484 27.4999V12.3332H49.1401V27.4999H46.6484ZM48.3601 27.4999V25.2249H56.2901V27.4999H48.3601Z" fill="#262626"/>
<path d="M58.2575 27.4999V17.0999H60.6409V27.4999H58.2575ZM59.4492 15.1932C59.0448 15.1932 58.7053 15.056 58.4309 14.7816C58.1709 14.5071 58.0409 14.1677 58.0409 13.7632C58.0409 13.3588 58.1709 13.0193 58.4309 12.7449C58.7053 12.4705 59.0448 12.3332 59.4492 12.3332C59.8681 12.3332 60.2075 12.4705 60.4675 12.7449C60.7275 13.0193 60.8575 13.3588 60.8575 13.7632C60.8575 14.1677 60.7275 14.5071 60.4675 14.7816C60.2075 15.056 59.8681 15.1932 59.4492 15.1932Z" fill="#262626"/>
<path d="M64.8957 27.4999V12.7666H67.279V27.4999H64.8957ZM62.404 19.2666V17.0999H76.054V19.2666H62.404ZM71.179 27.4999V12.7666H73.5623V27.4999H71.179Z" fill="#262626"/>
<path d="M77.7867 27.4999V11.8999H80.17V27.4999H77.7867Z" fill="#262626"/>
<path d="M87.6541 27.7166C86.6141 27.7166 85.6752 27.4855 84.8375 27.0232C84.0141 26.5466 83.3569 25.8966 82.8658 25.0732C82.3891 24.2499 82.1508 23.3255 82.1508 22.2999C82.1508 21.2743 82.3891 20.3571 82.8658 19.5482C83.3425 18.7249 83.9852 18.0749 84.7941 17.5982C85.6175 17.1216 86.5275 16.8832 87.5241 16.8832C88.4919 16.8832 89.3441 17.1071 90.0808 17.5549C90.8319 18.0027 91.4169 18.6166 91.8358 19.3966C92.2691 20.1766 92.4858 21.0649 92.4858 22.0616C92.4858 22.2349 92.4714 22.4155 92.4425 22.6032C92.428 22.7766 92.3991 22.9716 92.3558 23.1882H83.8191V21.2382H91.1208L90.2325 22.0182C90.2036 21.3827 90.0808 20.8482 89.8641 20.4149C89.6475 19.9816 89.3369 19.6493 88.9325 19.4182C88.5425 19.1871 88.0586 19.0716 87.4808 19.0716C86.8741 19.0716 86.3469 19.2016 85.8991 19.4616C85.4514 19.7216 85.1047 20.0899 84.8591 20.5666C84.6136 21.0288 84.4908 21.5849 84.4908 22.2349C84.4908 22.8849 84.6208 23.4555 84.8808 23.9466C85.1408 24.4377 85.5091 24.8205 85.9858 25.0949C86.4625 25.3549 87.0114 25.4849 87.6325 25.4849C88.1669 25.4849 88.658 25.391 89.1058 25.2032C89.568 25.0155 89.958 24.741 90.2758 24.3799L91.7925 25.9182C91.2869 26.5105 90.673 26.9582 89.9508 27.2616C89.2286 27.5649 88.463 27.7166 87.6541 27.7166Z" fill="#262626"/>
<path d="M99.0589 27.4999V12.3332H101.551V27.4999H99.0589ZM100.771 27.4999V25.2249H108.701V27.4999H100.771Z" fill="#262626"/>
<path d="M115.118 27.7166C114.078 27.7166 113.139 27.4855 112.302 27.0232C111.478 26.5466 110.821 25.8966 110.33 25.0732C109.853 24.2499 109.615 23.3255 109.615 22.2999C109.615 21.2743 109.853 20.3571 110.33 19.5482C110.807 18.7249 111.449 18.0749 112.258 17.5982C113.082 17.1216 113.992 16.8832 114.988 16.8832C115.956 16.8832 116.808 17.1071 117.545 17.5549C118.296 18.0027 118.881 18.6166 119.3 19.3966C119.733 20.1766 119.95 21.0649 119.95 22.0616C119.95 22.2349 119.936 22.4155 119.907 22.6032C119.892 22.7766 119.863 22.9716 119.82 23.1882H111.283V21.2382H118.585L117.697 22.0182C117.668 21.3827 117.545 20.8482 117.328 20.4149C117.112 19.9816 116.801 19.6493 116.397 19.4182C116.007 19.1871 115.523 19.0716 114.945 19.0716C114.338 19.0716 113.811 19.2016 113.363 19.4616C112.916 19.7216 112.569 20.0899 112.323 20.5666C112.078 21.0288 111.955 21.5849 111.955 22.2349C111.955 22.8849 112.085 23.4555 112.345 23.9466C112.605 24.4377 112.973 24.8205 113.45 25.0949C113.927 25.3549 114.476 25.4849 115.097 25.4849C115.631 25.4849 116.122 25.391 116.57 25.2032C117.032 25.0155 117.422 24.741 117.74 24.3799L119.257 25.9182C118.751 26.5105 118.137 26.9582 117.415 27.2616C116.693 27.5649 115.927 27.7166 115.118 27.7166Z" fill="#262626"/>
<path d="M126.216 27.7166C125.277 27.7166 124.424 27.4782 123.659 27.0016C122.908 26.5249 122.308 25.8821 121.861 25.0732C121.427 24.2499 121.211 23.3327 121.211 22.3216C121.211 21.296 121.427 20.3788 121.861 19.5699C122.308 18.7466 122.908 18.0966 123.659 17.6199C124.424 17.1288 125.277 16.8832 126.216 16.8832C127.01 16.8832 127.711 17.0566 128.317 17.4032C128.938 17.7355 129.429 18.1977 129.791 18.7899C130.152 19.3821 130.332 20.0538 130.332 20.8049V23.7949C130.332 24.546 130.152 25.2177 129.791 25.8099C129.444 26.4021 128.96 26.8716 128.339 27.2182C127.718 27.5505 127.01 27.7166 126.216 27.7166ZM126.606 25.4632C127.487 25.4632 128.194 25.1671 128.729 24.5749C129.278 23.9827 129.552 23.2243 129.552 22.2999C129.552 21.6788 129.429 21.1299 129.184 20.6532C128.938 20.1766 128.592 19.8082 128.144 19.5482C127.711 19.2738 127.198 19.1366 126.606 19.1366C126.028 19.1366 125.515 19.2738 125.067 19.5482C124.634 19.8082 124.287 20.1766 124.027 20.6532C123.782 21.1299 123.659 21.6788 123.659 22.2999C123.659 22.921 123.782 23.4699 124.027 23.9466C124.287 24.4232 124.634 24.7988 125.067 25.0732C125.515 25.3332 126.028 25.4632 126.606 25.4632ZM129.401 27.4999V24.7049L129.812 22.1699L129.401 19.6566V17.0999H131.784V27.4999H129.401Z" fill="#262626"/>
<path d="M134.429 27.4999V17.0999H136.812V27.4999H134.429ZM136.812 21.7149L135.989 21.3032C135.989 19.9888 136.278 18.9271 136.856 18.1182C137.448 17.2949 138.336 16.8832 139.521 16.8832C140.041 16.8832 140.51 16.9771 140.929 17.1649C141.348 17.3527 141.738 17.656 142.099 18.0749L140.539 19.6782C140.351 19.476 140.142 19.3316 139.911 19.2449C139.679 19.1582 139.412 19.1149 139.109 19.1149C138.444 19.1149 137.896 19.3243 137.462 19.7432C137.029 20.1621 136.812 20.8193 136.812 21.7149Z" fill="#262626"/>
<path d="M150.38 27.4999V21.4982C150.38 20.8049 150.157 20.2343 149.709 19.7866C149.275 19.3388 148.712 19.1149 148.019 19.1149C147.557 19.1149 147.145 19.216 146.784 19.4182C146.423 19.6205 146.141 19.9021 145.939 20.2632C145.737 20.6243 145.635 21.036 145.635 21.4982L144.704 20.9782C144.704 20.1838 144.877 19.4832 145.224 18.8766C145.57 18.2555 146.047 17.7716 146.654 17.4249C147.275 17.0638 147.968 16.8832 148.734 16.8832C149.514 16.8832 150.207 17.0855 150.814 17.4899C151.42 17.8799 151.897 18.3927 152.244 19.0282C152.59 19.6493 152.764 20.2993 152.764 20.9782V27.4999H150.38ZM143.252 27.4999V17.0999H145.635V27.4999H143.252Z" fill="#262626"/>
<path d="M160.017 27.7166C158.977 27.7166 158.039 27.4855 157.201 27.0232C156.377 26.5466 155.72 25.8966 155.229 25.0732C154.752 24.2499 154.514 23.3255 154.514 22.2999C154.514 21.2743 154.752 20.3571 155.229 19.5482C155.706 18.7249 156.349 18.0749 157.157 17.5982C157.981 17.1216 158.891 16.8832 159.887 16.8832C160.855 16.8832 161.707 17.1071 162.444 17.5549C163.195 18.0027 163.78 18.6166 164.199 19.3966C164.632 20.1766 164.849 21.0649 164.849 22.0616C164.849 22.2349 164.835 22.4155 164.806 22.6032C164.791 22.7766 164.762 22.9716 164.719 23.1882H156.182V21.2382H163.484L162.596 22.0182C162.567 21.3827 162.444 20.8482 162.227 20.4149C162.011 19.9816 161.7 19.6493 161.296 19.4182C160.906 19.1871 160.422 19.0716 159.844 19.0716C159.237 19.0716 158.71 19.2016 158.262 19.4616C157.815 19.7216 157.468 20.0899 157.222 20.5666C156.977 21.0288 156.854 21.5849 156.854 22.2349C156.854 22.8849 156.984 23.4555 157.244 23.9466C157.504 24.4377 157.872 24.8205 158.349 25.0949C158.826 25.3549 159.375 25.4849 159.996 25.4849C160.53 25.4849 161.021 25.391 161.469 25.2032C161.931 25.0155 162.321 24.741 162.639 24.3799L164.156 25.9182C163.65 26.5105 163.036 26.9582 162.314 27.2616C161.592 27.5649 160.826 27.7166 160.017 27.7166Z" fill="#262626"/>
<path d="M166.76 27.4999V17.0999H169.143V27.4999H166.76ZM169.143 21.7149L168.32 21.3032C168.32 19.9888 168.609 18.9271 169.186 18.1182C169.779 17.2949 170.667 16.8832 171.851 16.8832C172.371 16.8832 172.841 16.9771 173.26 17.1649C173.679 17.3527 174.069 17.656 174.43 18.0749L172.87 19.6782C172.682 19.476 172.472 19.3316 172.241 19.2449C172.01 19.1582 171.743 19.1149 171.44 19.1149C170.775 19.1149 170.226 19.3243 169.793 19.7432C169.36 20.1621 169.143 20.8193 169.143 21.7149Z" fill="#262626"/>
<path d="M178.752 27.7166C178.174 27.7166 177.618 27.6443 177.083 27.4999C176.549 27.341 176.058 27.1243 175.61 26.8499C175.162 26.561 174.772 26.2143 174.44 25.8099L175.957 24.2932C176.318 24.7121 176.73 25.0299 177.192 25.2466C177.668 25.4488 178.203 25.5499 178.795 25.5499C179.33 25.5499 179.734 25.4705 180.008 25.3116C180.283 25.1527 180.42 24.9216 180.42 24.6182C180.42 24.3005 180.29 24.0549 180.03 23.8816C179.77 23.7082 179.431 23.5638 179.012 23.4482C178.607 23.3182 178.174 23.1882 177.712 23.0582C177.264 22.9282 176.831 22.7549 176.412 22.5382C176.007 22.3071 175.675 21.9966 175.415 21.6066C175.155 21.2166 175.025 20.711 175.025 20.0899C175.025 19.4255 175.177 18.8549 175.48 18.3782C175.798 17.9016 176.238 17.5332 176.802 17.2732C177.38 17.0132 178.066 16.8832 178.86 16.8832C179.698 16.8832 180.435 17.0349 181.07 17.3382C181.72 17.6271 182.262 18.0677 182.695 18.6599L181.178 20.1766C180.875 19.801 180.528 19.5193 180.138 19.3316C179.748 19.1438 179.301 19.0499 178.795 19.0499C178.318 19.0499 177.95 19.1221 177.69 19.2666C177.43 19.411 177.3 19.6205 177.3 19.8949C177.3 20.1838 177.43 20.4077 177.69 20.5666C177.95 20.7255 178.282 20.8627 178.687 20.9782C179.106 21.0938 179.539 21.2238 179.987 21.3682C180.449 21.4982 180.882 21.686 181.287 21.9316C181.706 22.1627 182.045 22.4805 182.305 22.8849C182.565 23.2749 182.695 23.7877 182.695 24.4232C182.695 25.4343 182.341 26.236 181.633 26.8282C180.926 27.4205 179.965 27.7166 178.752 27.7166Z" fill="#262626"/>
</svg>
