<svg xmlns="http://www.w3.org/2000/svg" width="200" height="200" fill="none"><g clip-path="url(#a)"><path fill="#FFBE99" d="M0 24.996 24.996 0H49.99v24.996L24.996 49.99H0z"/><path fill="#262626" d="M49.992 0H24.996v24.996h24.996z"/><path fill="#FFBE99" d="m0 75.004 24.996-25.013H49.99v25.013L24.996 100H0z"/><path fill="#262626" d="M49.992 49.992H24.996v24.995h24.996z"/><path fill="#FFBE99" d="M0 124.996 24.996 100H49.99v24.996l-24.995 24.995H0z"/><path fill="#262626" d="M49.992 100H24.996v24.996h24.996z"/><path fill="#FFBE99" d="m0 174.987 24.996-24.996H49.99v24.996L24.996 200H0z"/><path fill="#262626" d="M49.992 149.991H24.996v24.996h24.996z"/><path fill="#FFBE99" d="M49.992 24.996 75.005 0h24.996v24.996L75.005 49.99H49.992z"/><path fill="#262626" d="M100.002 0H75.006v24.996h24.996z"/><path fill="#FFBE99" d="m49.992 75.004 25.013-25.013h24.996v25.013L75.005 100H49.992z"/><path fill="#262626" d="M100.002 49.992H75.006v24.995h24.996z"/><path fill="#FFBE99" d="M49.992 124.996 75.005 100h24.996v24.996l-24.996 24.995H49.992z"/><path fill="#262626" d="M100.002 100H75.006v24.996h24.996z"/><path fill="#FFBE99" d="M100 24.996 124.996 0h24.995v24.996L124.996 49.99H100z"/><path fill="#262626" d="M149.992 0h-24.996v24.996h24.996z"/><path fill="#FFBE99" d="M149.992 24.996 174.988 0h25.013v24.996L174.988 49.99h-24.996z"/><path fill="#262626" d="M199.984 0h-24.996v24.996h24.996z"/><path fill="#FFBE99" d="m100 75.004 24.996-25.013h24.995v25.013L124.996 100H100z"/><path fill="#262626" d="M149.992 49.992h-24.996v24.995h24.996z"/></g><defs><clipPath id="a"><path fill="#fff" d="M0 0h200v200H0z"/></clipPath></defs></svg>