<svg xmlns="http://www.w3.org/2000/svg" width="34" height="34" fill="none"><path fill="#262626" d="M26.031 3.188a2.656 2.656 0 0 0-2.656 2.656v22.312a2.656 2.656 0 0 0 2.656 2.657h1.063a2.656 2.656 0 0 0 2.656-2.657V5.844a2.656 2.656 0 0 0-2.656-2.657zM13.813 12.219a2.656 2.656 0 0 1 2.656-2.656h1.062a2.656 2.656 0 0 1 2.657 2.656v15.937a2.656 2.656 0 0 1-2.657 2.657H16.47a2.656 2.656 0 0 1-2.657-2.657zM4.25 18.594a2.656 2.656 0 0 1 2.656-2.657H7.97a2.656 2.656 0 0 1 2.656 2.657v9.562a2.656 2.656 0 0 1-2.656 2.657H6.906a2.656 2.656 0 0 1-2.656-2.657z"/></svg>