<svg xmlns="http://www.w3.org/2000/svg" width="34" height="34" fill="none"><path fill="#262626" d="M17 3.188c.587 0 1.063.475 1.063 1.062v3.188a1.063 1.063 0 0 1-2.125 0V4.25c0-.587.475-1.062 1.062-1.062M10.625 17a6.375 6.375 0 1 1 12.75 0 6.375 6.375 0 0 1-12.75 0M26.767 8.736a1.063 1.063 0 0 0-1.503-1.503l-2.253 2.254a1.062 1.062 0 1 0 1.502 1.502zM30.813 17c0 .587-.476 1.063-1.063 1.063h-3.187a1.063 1.063 0 0 1 0-2.125h3.187c.587 0 1.063.475 1.063 1.062M25.264 26.767a1.063 1.063 0 0 0 1.503-1.503l-2.254-2.254a1.062 1.062 0 1 0-1.503 1.503zM17 25.5c.587 0 1.063.476 1.063 1.063v3.187a1.063 1.063 0 0 1-2.125 0v-3.187c0-.587.475-1.063 1.062-1.063M10.99 24.513a1.063 1.063 0 0 0-1.503-1.503l-2.254 2.254a1.063 1.063 0 0 0 1.503 1.503zM8.5 17c0 .587-.476 1.063-1.062 1.063H4.25a1.063 1.063 0 0 1 0-2.125h3.188c.586 0 1.062.475 1.062 1.062M9.487 10.99a1.062 1.062 0 1 0 1.503-1.503L8.736 7.233a1.063 1.063 0 0 0-1.503 1.503z"/></svg>