<svg xmlns="http://www.w3.org/2000/svg" width="34" height="34" fill="none"><path fill="#262626" d="M15.938 7.56c0-.502-.264-.957-.569-1.358a2.33 2.33 0 0 1-.494-1.42c0-1.468 1.427-2.657 3.188-2.657 1.76 0 3.187 1.19 3.187 2.656 0 .523-.181 1.01-.494 1.421-.305.4-.569.856-.569 1.359 0 .47.394.846.864.818a67 67 0 0 0 7.98-.957 1.06 1.06 0 0 1 1.244.913c.317 2.535.497 5.113.532 7.725a.93.93 0 0 1-.934.94c-.503 0-.958-.264-1.358-.568a2.33 2.33 0 0 0-1.421-.494c-1.467 0-2.657 1.427-2.657 3.187s1.19 3.188 2.657 3.188c.522 0 1.01-.182 1.42-.495.401-.304.856-.568 1.36-.568.439 0 .788.37.756.81a69 69 0 0 1-.843 6.863 1.06 1.06 0 0 1-.864.864 69 69 0 0 1-7.87.909.82.82 0 0 1-.866-.823c0-.503.264-.958.569-1.358.313-.411.494-.899.494-1.421 0-1.467-1.427-2.657-3.187-2.657s-3.188 1.19-3.188 2.657c0 .522.181 1.01.494 1.42.305.401.569.856.569 1.36 0 .511-.42.925-.932.91a70 70 0 0 1-6.67-.51 1.063 1.063 0 0 1-.914-1.244 67 67 0 0 0 .89-6.975.75.75 0 0 0-.751-.805c-.503 0-.958.264-1.359.568a2.33 2.33 0 0 1-1.42.494c-1.468 0-2.657-1.427-2.657-3.187s1.19-3.187 2.656-3.187c.523 0 1.01.18 1.421.494.4.304.856.568 1.359.568a.93.93 0 0 0 .933-.94 68 68 0 0 0-.44-6.829 1.063 1.063 0 0 1 1.178-1.177q2.854.33 5.775.417a.907.907 0 0 0 .93-.91"/></svg>