<svg xmlns="http://www.w3.org/2000/svg" width="34" height="34" fill="none"><path fill="#262626" fill-rule="evenodd" d="M29.182 2.125c-.532 0-1.051.157-1.494.452l-7.195 4.797a26.6 26.6 0 0 0-5.21 4.556 13.8 13.8 0 0 1 6.788 6.787 26.6 26.6 0 0 0 4.556-5.209l4.796-7.195a2.694 2.694 0 0 0-2.24-4.188M17.425 21.994a27 27 0 0 0 3.033-1.966 11.8 11.8 0 0 0-6.485-6.485 27 27 0 0 0-1.966 3.033l-.394.71a7.45 7.45 0 0 1 5.102 5.102zm-7.862-2.869a5.31 5.31 0 0 0-5.312 5.313 2.125 2.125 0 0 1-2.269 2.12 1.063 1.063 0 0 0-.99 1.59 7.438 7.438 0 0 0 13.884-3.711 5.313 5.313 0 0 0-5.313-5.312" clip-rule="evenodd"/></svg>