<svg width="20" height="20" fill="none" xmlns="http://www.w3.org/2000/svg">
  <g clip-path="url(#a)">
    <path d="M18.5195 0H1.47656C.660156 0 0 .644531 0 1.44141V18.5547C0 19.3516.660156 20 1.47656 20H18.5195C19.3359 20 20 19.3516 20 18.5586V1.44141C20 .644531 19.3359 0 18.5195 0ZM5.93359 17.043H2.96484V7.49609h2.96875V17.043ZM4.44922 6.19531c-.95313 0-1.72266-.76953-1.72266-1.71875s.76953-1.71875 1.72266-1.71875c.94922 0 1.71875.76953 1.71875 1.71875 0 .94532-.76953 1.71875-1.71875 1.71875ZM17.043 17.043h-2.9649v-4.6407c0-1.1054-.0195-2.53121-1.5429-2.53121-1.543 0-1.7774 1.20701-1.7774 2.45311v4.7188H7.79688V7.49609h2.84372v1.30469h.0391c.3945-.75 1.3633-1.54297 2.8047-1.54297 3.0039 0 3.5586 1.97657 3.5586 4.54689v5.2383Z" fill="#262626"/>
  </g>
  <defs>
    <clipPath id="a">
      <path fill="#fff" d="M0 0h20v20H0z"/>
    </clipPath>
  </defs>
</svg>
