<svg width="28" height="28" fill="none" xmlns="http://www.w3.org/2000/svg">
  <path fill-rule="evenodd" clip-rule="evenodd" d="M3.5 7.875c0-.48325.39175-.875.875-.875h19.25c.4832 0 .875.39175.875.875s-.3918.875-.875.875H4.375c-.48325 0-.875-.39175-.875-.875ZM3.5 14c0-.4832.39175-.875.875-.875h19.25c.4832 0 .875.3918.875.875s-.3918.875-.875.875H4.375c-.48325 0-.875-.3918-.875-.875Zm9.625 6.125c0-.4832.3918-.875.875-.875h9.625c.4832 0 .875.3918.875.875s-.3918.875-.875.875H14c-.4832 0-.875-.3918-.875-.875Z" fill="#262626"/>
</svg>
