<svg width="25" height="24" fill="none" xmlns="http://www.w3.org/2000/svg">
  <path d="M19.042 2.25c-1.0355 0-1.875.83947-1.875 1.875v15.75c0 1.0355.8395 1.875 1.875 1.875h.75c1.0355 0 1.875-.8395 1.875-1.875V4.125c0-1.03553-.8395-1.875-1.875-1.875h-.75ZM10.417 8.625c0-1.03553.8395-1.875 1.875-1.875h.75c1.0355 0 1.875.83947 1.875 1.875v11.25c0 1.0355-.8395 1.875-1.875 1.875h-.75c-1.0355 0-1.875-.8395-1.875-1.875V8.625ZM3.66699 13.125c0-1.0355.83947-1.875 1.875-1.875h.75c1.03554 0 1.875.8395 1.875 1.875v6.75c0 1.0355-.83946 1.875-1.875 1.875h-.75c-1.03553 0-1.875-.8395-1.875-1.875v-6.75Z" fill="#262626"/>
</svg>
