<svg width="20" height="20" fill="none" xmlns="http://www.w3.org/2000/svg">
  <path d="M17.6676 2.91162H2.33242C1.04406 2.91162 0 3.95568 0 5.24369v9.51281c0 1.288 1.04406 2.3321 2.33242 2.3321H17.6676c1.288 0 2.3324-1.0441 2.3324-2.3321V5.24369c0-1.28801-1.0444-2.33207-2.3324-2.33207Zm1.2187 12.47318-.444.5258-6.2174-5.0743-.9629.9162c-.7136.6553-1.81036.6553-2.52399 0l-.96289-.9162-6.21746 5.0743-.44399-.5258 5.8375-5.3327-5.87574-5.522.34738-.46028L10 10.5688l8.5771-6.49898.3472.46028-5.8754 5.522 5.8374 5.3327Z" fill="#262626"/>
</svg>
