<svg width="67" height="50" fill="none" xmlns="http://www.w3.org/2000/svg">
  <g clip-path="url(#a)">
    <path d="M60.6479 17.4722c-1.9237-.6473-3.7929-1.4854-5.7484-1.8942-4.9512-1.0334-9.682-.2044-13.8542 2.6618-1.5785 1.0856-2.7413 2.7936-4.0427 4.263-1.122 1.2673-2.1712 2.6005-3.3454 4.0177-1.2242-1.449-2.3348-2.8685-3.559-4.1857-1.4853-1.5967-2.8276-3.5022-4.6468-4.5742-5.5894-3.3-11.4717-3.3364-17.37453-.6586-.40199.1817-.79491.3838-1.46945.7131.73359-1.5308 1.34227-2.8049 1.95549-4.079.49057-1.0221 1.0947-2.0032 1.45359-3.0684 1.0447-3.08652 3.593-4.36747 6.3911-4.93072 3.6089-.72451 7.1882-.30888 10.2384 2.06223.5065.39291.8949 1.09925 1.0652 1.73291.352 1.30138.5201 2.65498.8176 4.26978.8086-.2112 1.5762-.2975 2.2394-.6086 2.0214-.9449 3.9859-1.0107 5.9732.0749.377.2067.8313.2975 1.2605.3748.7382.134 1.0811-.159 1.1356-.963.0704-1.0516.2067-2.1168.4815-3.12971.1658-.61322.5292-1.27413 1.0016-1.68976 2.9048-2.56189 6.3843-2.61867 9.9568-2.10992.7041.09993 1.3968.32478 2.0759.55189 1.9646.65864 3.5158 1.72156 4.3788 3.7656.9221 2.1872 2.1031 4.263 3.1661 6.3911.1771.3543.3225.7223.4519 1.0152l-.0022-.0022Z" fill="#262626"/>
    <path d="M32.108 34.1835c-.0386 8.8304-7.0861 15.8369-15.9073 15.8142C7.40667 49.975.297879 42.873.304692 34.1199.311506 25.3509 7.60426 18.1036 16.3188 18.2012c8.8167.0977 15.8255 7.1951 15.7892 15.9823ZM16.2234 44.5378c5.8733 0 10.6177-4.7354 10.6087-10.5905-.0091-5.8869-4.7264-10.5814-10.6269-10.5769-5.7892.0046-10.50873 4.7309-10.54053 10.5542-.03179 5.8914 4.66503 10.611 10.55643 10.6132h.0023ZM35.1992 34.1131c.0046-8.7872 7.0929-15.8982 15.8597-15.9118 8.7236-.0137 15.8937 7.1269 15.9414 15.8778.0499 8.7803-7.1361 15.9459-15.9642 15.9232-8.828-.025-15.8414-7.0611-15.8369-15.8869v-.0023Zm26.4411-.1408c0-5.9323-4.6627-10.6064-10.5746-10.5996-5.8324.0046-10.6087 4.8036-10.5928 10.6428.0159 5.7983 4.7468 10.5155 10.561 10.5246 5.9073.0114 10.6041-4.6718 10.6041-10.5678h.0023Z" fill="#FF9E66"/>
    <path d="M52.3059 2.93663c-3.9132-.98569-7.5653-.74267-11.1174.9221.3361-1.63979 2.1758-3.236427 4.1017-3.627069 2.7936-.567795 5.4554.404269 7.0157 2.707249v-.00228ZM15.1426 2.58914C16.4758.881217 18.2791-.11583 20.5389.0113558 23.0486.152169 24.9609 1.37406 26.1782 3.60209c-1.826-.39519-3.6089-.95844-5.4281-1.12196-1.8487-.16807-3.7315.05678-5.6075.10901Z" fill="#262626"/>
  </g>
  <defs>
    <clipPath id="a">
      <path fill="#fff" transform="translate(.304688)" d="M0 0h66.6954v50H0z"/>
    </clipPath>
  </defs>
</svg>
