<svg width="20" height="20" fill="none" xmlns="http://www.w3.org/2000/svg">
  <path fill-rule="evenodd" clip-rule="evenodd" d="M1.25 3.75c0-1.38071 1.11929-2.5 2.5-2.5h1.14302c.71698 0 1.34196.48796 1.51585 1.18354l.9215 3.68598c.15247.6099-.07542 1.25177-.57835 1.62897L5.674 8.557c-.11194.08396-.13628.2069-.10483.29274.94625 2.58316 2.99793 4.63486 5.58113 5.58106.0858.0315.2087.0071.2927-.1048l.8085-1.078c.3772-.5029 1.0191-.7308 1.629-.5784l3.686.9215c.6955.1739 1.1835.7989 1.1835 1.5159v1.143c0 1.3807-1.1193 2.5-2.5 2.5h-1.875C7.12626 18.75 1.25 12.8737 1.25 5.625V3.75Z" fill="#262626"/>
</svg>
