<svg width="50" height="50" fill="none" xmlns="http://www.w3.org/2000/svg">
  <g clip-path="url(#a)">
    <path d="M33.335 8.33238 41.6673 0h8.3324v8.33238l-8.3324 8.33242H33.335V8.33238Z" fill="#FFDECC"/>
    <path d="M49.9994 0H41.667v8.33238h8.3324V0Z" fill="#FF8D4D"/>
    <path d="m33.335 25.0028 8.3323-8.3381h8.3324v8.3381l-8.3324 8.3324H33.335v-8.3324Z" fill="#FFDECC"/>
    <path d="M49.9994 16.6647H41.667v8.3324h8.3324v-8.3324Z" fill="#FF8D4D"/>
    <path d="M16.665 8.33238 25.0031 0h8.3324v8.33238l-8.3324 8.33242H16.665V8.33238Z" fill="#FFDECC"/>
    <path d="M33.3353 0h-8.3324v8.33238h8.3324V0Z" fill="#FF8D4D"/>
    <path d="m16.665 25.0028 8.3381-8.3381h8.3324v8.3381l-8.3324 8.3324H16.665v-8.3324Z" fill="#FFDECC"/>
    <path d="M33.3353 16.6647h-8.3324v8.3324h8.3324v-8.3324Z" fill="#FF8D4D"/>
    <path d="M0 8.33238 8.33238 0h8.33242v8.33238L8.33238 16.6648H0V8.33238Z" fill="#FFDECC"/>
    <path d="M16.6644 0H8.33203v8.33238h8.33237V0Z" fill="#FF8D4D"/>
    <path d="m0 25.0028 8.33238-8.3381h8.33242v8.3381l-8.33242 8.3324H0v-8.3324Z" fill="#FFDECC"/>
    <path d="M16.6644 16.6647H8.33203v8.3324h8.33237v-8.3324Z" fill="#FF8D4D"/>
    <path d="m33.335 41.6676 8.3323-8.3323h8.3324v8.3323L41.6673 50H33.335v-8.3324Z" fill="#FFDECC"/>
    <path d="M49.9994 33.3353H41.667v8.3323h8.3324v-8.3323Z" fill="#FF8D4D"/>
    <path d="m16.665 41.6676 8.3381-8.3323h8.3324v8.3323L25.0031 50H16.665v-8.3324Z" fill="#FFDECC"/>
    <path d="M33.3353 33.3353h-8.3324v8.3323h8.3324v-8.3323Z" fill="#FF8D4D"/>
    <path d="m0 41.6676 8.33238-8.3323h8.33242v8.3323L8.33238 50H0v-8.3324Z" fill="#FFDECC"/>
    <path d="M16.6644 33.3353H8.33203v8.3323h8.33237v-8.3323Z" fill="#FF8D4D"/>
  </g>
  <defs>
    <clipPath id="a">
      <path fill="#fff" d="M0 0h50v50H0z"/>
    </clipPath>
  </defs>
</svg>
