<svg width="51" height="50" fill="none" xmlns="http://www.w3.org/2000/svg">
  <g clip-path="url(#a)">
    <path d="M31.5887 30.3589c1.9641 3.5877 3.8812 7.0849 5.795 10.582 1.419 2.5948 2.8363 5.1912 4.2469 7.7893.5133.9443.3237 1.2664-.7447 1.2664-10.0604.0033-20.1208.0033-30.1812 0-.98284 0-1.19754-.3338-.74467-1.164C13.4605 42.4152 16.9677 36.0013 20.4733 29.589c.0537-.0973.1291-.1811.2298-.3204.8722.5066 1.3737 1.9088 2.5511 1.5398.9443-.2969 1.7293-1.0986 2.7793-1.8064.4562.4931 1.0416 1.159 1.6639 1.7879 1.3233 1.3385 2.0395 1.3385 3.3696.0437.1376-.1342.2835-.2584.5217-.473v-.0017Z" fill="#262626"/>
    <path d="M28.5508 1.73438h14.3207c-.2063.30526-.3187.50821-.4663.68265-.9208 1.08689-1.8568 2.16035-2.7742 3.24891-.8135.96612-.8018 1.89366.0201 2.86314 1.0449 1.22945 2.0966 2.45222 3.2707 3.82082h-14.371V1.73438Z" fill="#FF9E66"/>
    <path d="M7.75443 49.9363H.637695C3.56457 44.7031 6.41093 39.6176 9.26064 34.522c1.23226.9258 2.58696.8548 4.06406-.213.0252.0117.0554.0184.0755.0352 1.1137.9426 1.3223 2.0491.6256 3.3193-1.8467 3.3747-3.7085 6.7411-5.52162 10.1325-.34049.6374-.48977 1.3771-.74975 2.1386v.0017ZM38.1706 34.1546c1.5308 1.2457 2.9347 1.3659 4.2116.3606 2.8498 5.0973 5.6928 10.1812 8.618 15.4127h-7.0916c-.2902-.7951-.473-1.575-.8403-2.2593-1.9876-3.7102-4.0088-7.4019-6.05-11.0819-.2919-.5267-.317-.8588.1694-1.268.3774-.317.6491-.7615.9829-1.1657v.0016Z" fill="#262626"/>
    <path d="M30.7233 28.7688c-.4479.3875-.8689.7514-1.424 1.2345-.6693-.7095-1.3687-1.4894-2.1101-2.2291-.9325-.9292-1.8316-.9024-2.7574.0302-.4076.4092-.8219.8151-1.3855 1.3753-.3975-.4629-.8051-.8839-1.1372-1.3569-.1207-.1727-.166-.5267-.0704-.7044 1.0852-2.0396 2.1922-4.0675 3.3193-6.0852.4059-.7263.9427-.7028 1.3603.0553 1.3855 2.5092 2.7541 5.0268 4.205 7.682v-.0017ZM26.6773 18.7605H24.933v-.8369c0-5.5049 0-11.00976.0016-16.51294 0-.27843-.062-.615569.0688-.820199.1728-.266689.5166-.6021463.7716-.59040532.3052.01509562.6239.33545832.8738.58705132.1057.105669.0621.374035.0621.568603.0033 5.69943.0017 11.40049 0 17.09999 0 .1627-.0218.3237-.0352.5048h.0016Z" fill="#FF9E66"/>
    <path d="M13.2713 27.4035c.2969.4545.473.6927.6172.9493.728 1.2882 1.4442 2.5814 2.1688 3.8696.3567.6351.3086 1.254-.1443 1.8567-.7749-.5652-1.4777-1.3183-2.3415-1.6471-1.0684-.4042-1.6169.7431-2.4622 1.3653-.2566-.3354-.5082-.6625-.832-1.0869.9242-1.6387 1.9105-3.3864 2.994-5.3103v.0034ZM41.4212 32.8178c-.3153.3455-.5937.6491-.8604.941-1.5129-1.0892-3.1069-.9595-4.782.3891-.5702-.5804-.6944-1.1473-.2197-1.9054.7833-1.253 1.4593-2.5713 2.1855-3.8595.146-.2583.3154-.5031.6189-.9829.5821 1.0165 1.0735 1.8635 1.5549 2.7156.4931.8738.9779 1.7544 1.5028 2.7021Z" fill="#262626"/>
  </g>
  <defs>
    <clipPath id="a">
      <path fill="#fff" transform="translate(.637695)" d="M0 0h50.3623v50H0z"/>
    </clipPath>
  </defs>
</svg>
