<svg width="20" height="20" fill="none" xmlns="http://www.w3.org/2000/svg">
  <g clip-path="url(#a)">
    <path d="M20 10c0-5.52285-4.4771-10-10-10C4.47715 0 0 4.47715 0 10c0 4.9912 3.65684 9.1283 8.4375 9.8785v-6.9879H5.89844V10H8.4375V7.79688c0-2.50625 1.49297-3.89063 3.7771-3.89063 1.0938 0 2.2385.19531 2.2385.19531V6.5625h-1.2609c-1.2422 0-1.6297.7709-1.6297 1.5625V10h2.7734l-.4433 2.8906h-2.3301v6.9879C16.3432 19.1283 20 14.9912 20 10Z" fill="#262626"/>
  </g>
  <defs>
    <clipPath id="a">
      <path fill="#fff" d="M0 0h20v20H0z"/>
    </clipPath>
  </defs>
</svg>
