<svg width="24" height="24" fill="none" xmlns="http://www.w3.org/2000/svg">
  <path fill-rule="evenodd" clip-rule="evenodd" d="M14.6152 1.59493c.3013.16794.4491.51967.3584.85241L12.982 9.75h7.268c.2987 0 .5689.17719.6879.4511.119.2739.0642.5923-.1396.8106l-10.5 11.25c-.2353.2522-.61226.3113-.91349.1434-.30124-.168-.44911-.5197-.35837-.8524L11.0181 14.25H3.75002c-.29865 0-.56884-.1772-.68786-.4511-.11903-.2739-.06421-.5923.13957-.8106L13.7017 1.73826c.2353-.25213.6123-.31127.9135-.14333Z" fill="#262626"/>
</svg>
