<svg width="20" height="20" fill="none" xmlns="http://www.w3.org/2000/svg">
  <path fill-rule="evenodd" clip-rule="evenodd" d="M9.61646 18.6259c.02517.0146.04495.0258.05896.0337l.02327.013c.18572.1019.41611.1012.60201.0003l.0239-.0133c.014-.0079.0338-.0191.0589-.0337.0504-.0292.1223-.0717.2128-.1274.1808-.1113.436-.2755.7409-.4909.6087-.43 1.4209-1.0681 2.2349-1.9015 1.6201-1.6587 3.3029-4.151 3.3029-7.3561 0-3.79696-3.078-6.875-6.875-6.875-3.79696 0-6.875 3.07804-6.875 6.875 0 3.2051 1.68277 5.6974 3.30288 7.3561.814.8334 1.62621 1.4715 2.23494 1.9015.30489.2154.56013.3796.74093.4909.09044.0557.16237.0982.21271.1274ZM10 11.25c1.3807 0 2.5-1.1193 2.5-2.5 0-1.38071-1.1193-2.5-2.5-2.5-1.38071 0-2.5 1.11929-2.5 2.5 0 1.3807 1.11929 2.5 2.5 2.5Z" fill="#262626"/>
</svg>
