<svg width="24" height="24" fill="none" xmlns="http://www.w3.org/2000/svg">
  <path fill-rule="evenodd" clip-rule="evenodd" d="M2.25 13.5c0-4.55635 3.69365-8.25 8.25-8.25.4142 0 .75.33579.75.75v6.75H18c.4142 0 .75.3358.75.75 0 4.5563-3.6937 8.25-8.25 8.25-4.55635 0-8.25-3.6937-8.25-8.25Z" fill="#262626"/>
  <path fill-rule="evenodd" clip-rule="evenodd" d="M12.75 3c0-.41421.3358-.75.75-.75 4.5563 0 8.25 3.69365 8.25 8.25 0 .4142-.3358.75-.75.75h-7.5c-.4142 0-.75-.3358-.75-.75V3Z" fill="#262626"/>
</svg>
