<svg width="100" height="100" fill="none" xmlns="http://www.w3.org/2000/svg">
  <g clip-path="url(#a)">
    <path d="M0 12.4979 12.4979 0h12.4978v12.4979L12.4979 24.9957H0V12.4979Z" fill="#FFBE99"/>
    <path d="M24.9959 0H12.498v12.4979h12.4979V0Z" fill="#262626"/>
    <path d="m0 37.502 12.4979-12.5064h12.4978V37.502L12.4979 49.9999H0V37.502Z" fill="#FFBE99"/>
    <path d="M24.9959 24.9956H12.498v12.4979h12.4979V24.9956Z" fill="#262626"/>
    <path d="M0 62.4979 12.4979 50h12.4978v12.4979L12.4979 74.9957H0V62.4979Z" fill="#FFBE99"/>
    <path d="M24.9959 50H12.498v12.4979h12.4979V50Z" fill="#262626"/>
    <path d="m0 87.4935 12.4979-12.4979h12.4978v12.4979L12.4979 99.9999H0V87.4935Z" fill="#FFBE99"/>
    <path d="M24.9959 74.9956H12.498v12.4979h12.4979V74.9956Z" fill="#262626"/>
    <path d="M24.9961 12.4979 37.5025 0h12.4979v12.4979L37.5025 24.9957H24.9961V12.4979Z" fill="#FFBE99"/>
    <path d="M50.0008 0H37.5029v12.4979h12.4979V0Z" fill="#262626"/>
    <path d="m24.9961 37.502 12.5064-12.5064h12.4979V37.502L37.5025 49.9999H24.9961V37.502Z" fill="#FFBE99"/>
    <path d="M50.0008 24.9956H37.5029v12.4979h12.4979V24.9956Z" fill="#262626"/>
    <path d="M24.9961 62.4979 37.5025 50h12.4979v12.4979L37.5025 74.9957H24.9961V62.4979Z" fill="#FFBE99"/>
    <path d="M50.0008 50H37.5029v12.4979h12.4979V50Z" fill="#262626"/>
    <path d="M50 12.4979 62.4979 0h12.4978v12.4979L62.4979 24.9957H50V12.4979Z" fill="#FFBE99"/>
    <path d="M74.9959 0H62.498v12.4979h12.4979V0Z" fill="#262626"/>
    <path d="M74.9961 12.4979 87.4939 0H100v12.4979L87.4939 24.9957H74.9961V12.4979Z" fill="#FFBE99"/>
    <path d="M99.992 0H87.4941v12.4979H99.992V0Z" fill="#262626"/>
    <path d="m50 37.502 12.4979-12.5064h12.4978V37.502L62.4979 49.9999H50V37.502Z" fill="#FFBE99"/>
    <path d="M74.9959 24.9956H62.498v12.4979h12.4979V24.9956Z" fill="#262626"/>
  </g>
  <defs>
    <clipPath id="a">
      <path fill="#fff" d="M0 0h100v100H0z"/>
    </clipPath>
  </defs>
</svg>
