<svg width="125" height="384" viewBox="0 0 125 384" fill="none" xmlns="http://www.w3.org/2000/svg">
<mask id="path-1-inside-1_86_404" fill="white">
<path d="M0 0H125V372C125 378.627 119.627 384 113 384H12C5.37259 384 0 378.627 0 372V0Z"/>
</mask>
<path d="M0 0H125V372C125 378.627 119.627 384 113 384H12C5.37259 384 0 378.627 0 372V0Z" fill="#FFEFE6"/>
<path d="M0 0H125H0ZM127 372C127 379.732 120.732 386 113 386H12C4.26801 386 -2 379.732 -2 372H2C2 377.523 6.47715 382 12 382H113C118.523 382 123 377.523 123 372H127ZM12 386C4.26801 386 -2 379.732 -2 372V0H2V372C2 377.523 6.47715 382 12 382V386ZM127 0V372C127 379.732 120.732 386 113 386V382C118.523 382 123 377.523 123 372V0H127Z" fill="#262626" mask="url(#path-1-inside-1_86_404)"/>
</svg>
